# xmcd
#
# Track frame offsets: 
#        150
#        23560
#        57715
#        86118
#        115507
#        142765
#        168460
#        197357
#        220916
#        244739
#        258919
#        287952
#        315890
#
# Disc length: 4633 seconds
#
# Revision: 1
# Processed by: cddbd v1.5.2PL0 Copyright (c) Steve Scherf et al.
# Submitted via: ExactAudioCopy v1.0b3
#
DISCID=ae12170d
DTITLE=Pendulum - Greatest Hits [CD2)
DYEAR=2006
DGENRE=Drum and Bass
TTITLE0=Sounds of Life (featuring Jasmine L)
TTITLE1=Still Grey
TTITLE2=Plasticworld (featuring Fats and TC)
TTITLE3=Vault
TTITLE4=Out Here
TTITLE5=Spiral
TTITLE6=Back to U
TTITLE7=Moving Forward (Original Drum'n'Bass mix)
TTITLE8=Streamline 
TTITLE9=Aphid 
TTITLE10=Trail of Sevens 
TTITLE11=Ulterior Motive
TTITLE12=Everytnings Blue
EXTD=
EXTT0=
EXTT1=
EXTT2=
EXTT3=
EXTT4=
EXTT5=
EXTT6=
EXTT7=
EXTT8=
EXTT9=
EXTT10=
EXTT11=
EXTT12=
PLAYORDER=
